<?xml version="1.0" standalone="no"?>
<!DOCTYPE svg PUBLIC "-//W3C//DTD SVG 20010904//EN"
 "http://www.w3.org/TR/2001/REC-SVG-20010904/DTD/svg10.dtd">
<svg version="1.0" xmlns="http://www.w3.org/2000/svg"
 width="1000.000000pt" height="1000.000000pt" viewBox="0 0 1000.000000 1000.000000"
 preserveAspectRatio="xMidYMid meet">

<g transform="translate(0.000000,1000.000000) scale(0.100000,-0.100000)"
fill="#000000" stroke="none">
<path d="M4835 9131 c-22 -10 -48 -27 -57 -37 -27 -31 -48 -89 -48 -134 0 -39
22 -109 39 -120 18 -12 95 -118 119 -164 81 -157 83 -170 90 -676 6 -519 5
-671 -9 -760 -11 -74 -44 -172 -71 -212 -10 -14 -18 -30 -18 -35 0 -5 -8 -16
-17 -25 -10 -9 -33 -32 -50 -50 -41 -42 -48 -47 -108 -83 -27 -17 -59 -36 -70
-43 -11 -6 -32 -19 -47 -27 -48 -26 -200 -135 -271 -192 -98 -80 -261 -248
-342 -352 -38 -50 -73 -90 -77 -91 -5 0 -8 508 -8 1129 l0 1129 48 20 c71 31
127 92 146 161 20 71 20 94 1 157 -22 77 -76 136 -148 166 -38 15 -119 17
-918 17 -980 1 -932 4 -1010 -71 -145 -140 -94 -365 99 -438 l47 -18 5 -2583
5 -2584 28 -80 c67 -193 167 -339 313 -454 64 -51 171 -105 274 -138 79 -26
96 -28 250 -27 153 0 171 2 245 27 228 78 414 235 514 436 36 71 81 202 81
235 0 29 19 45 30 25 22 -39 142 -182 219 -262 65 -68 232 -216 281 -250 14
-10 50 -34 80 -55 30 -20 57 -40 60 -43 8 -9 88 -50 149 -76 104 -43 147 -44
1121 -41 l925 3 79 29 c115 41 281 146 411 258 81 71 242 232 291 291 21 27
44 54 49 60 166 200 327 508 419 806 144 460 147 959 9 1431 -14 47 -29 94
-33 105 -5 11 -25 61 -44 110 -18 50 -41 104 -50 120 -9 17 -16 33 -16 36 0
12 -121 224 -168 294 -58 88 -193 254 -275 339 -138 144 -305 274 -507 394
-174 103 -237 167 -297 295 -52 112 -53 121 -53 766 0 560 1 606 19 669 31
110 78 199 138 262 72 75 88 108 88 180 0 83 -31 137 -97 169 -44 21 -48 21
-934 21 -841 0 -891 -1 -929 -19z m1793 -143 c21 -21 13 -45 -36 -100 -100
-111 -165 -244 -188 -387 -20 -124 -20 -1198 0 -1322 15 -90 42 -164 87 -239
44 -71 173 -187 314 -282 72 -48 153 -103 180 -122 28 -20 58 -41 69 -48 42
-29 194 -158 240 -204 145 -147 265 -312 380 -526 l36 -68 -45 0 c-98 0 -385
-56 -485 -94 -19 -8 -69 -26 -110 -41 -131 -48 -278 -114 -530 -237 -267 -131
-299 -146 -440 -205 -272 -114 -480 -169 -685 -179 -207 -11 -351 17 -518 102
-105 53 -252 155 -307 213 -8 9 -33 31 -55 50 -22 19 -94 85 -160 147 -169
158 -355 308 -434 349 -18 9 -34 22 -37 30 -6 14 36 87 121 211 76 113 293
341 389 409 15 11 46 34 69 51 23 16 60 43 82 59 22 16 87 61 145 99 258 171
341 265 401 456 l24 75 0 635 c0 459 -3 646 -12 675 -6 22 -18 63 -26 90 -24
86 -119 264 -156 295 -16 13 -61 72 -61 80 0 5 7 16 16 24 14 14 106 16 868
16 649 0 855 -3 864 -12z m-2898 -1467 l0 -860 -37 16 c-21 8 -43 19 -48 23
-6 5 -33 14 -60 21 -28 6 -56 17 -64 23 -9 7 -65 11 -150 11 -156 -1 -214 -12
-486 -96 -214 -66 -379 -99 -494 -99 l-81 0 0 910 0 910 710 0 710 0 0 -859z
m-235 -953 c76 -21 127 -41 190 -74 l40 -21 3 -1574 c3 -1436 1 -1581 -14
-1654 -81 -392 -435 -633 -830 -565 -219 38 -430 217 -517 440 -53 135 -52
108 -52 1750 l0 1525 105 6 c203 12 258 25 718 170 98 31 241 30 357 -3z"/>
<path d="M2010 1395 l0 -335 195 0 195 0 0 35 0 35 -155 0 -155 0 0 300 0 300
-40 0 -40 0 0 -335z"/>
<path d="M3243 1477 c-51 -138 -106 -289 -123 -334 l-30 -83 43 0 42 0 34 95
33 96 136 -3 136 -3 32 -90 32 -90 41 -3 c22 -2 41 -1 41 3 0 3 -50 142 -111
308 -61 166 -116 314 -121 330 -9 24 -15 27 -51 27 l-42 0 -92 -253z m190 -3
c26 -72 47 -137 47 -143 0 -7 -34 -11 -106 -11 -81 0 -105 3 -102 13 3 6 26
74 53 150 26 76 51 134 55 130 4 -4 28 -67 53 -139z"/>
<path d="M4350 1395 l0 -337 168 4 c161 3 169 4 213 30 56 33 79 76 79 148 0
77 -43 142 -106 159 l-29 8 39 18 c75 36 96 147 43 226 -41 61 -83 74 -254 77
l-153 4 0 -337z m295 251 c48 -20 69 -57 62 -108 -10 -78 -66 -107 -204 -108
l-73 0 0 115 0 115 90 0 c56 0 104 -5 125 -14z m26 -302 c19 -11 42 -37 53
-58 16 -32 17 -44 7 -76 -18 -62 -47 -74 -183 -78 l-118 -4 0 122 0 123 104
-5 c78 -3 112 -9 137 -24z"/>
<path d="M6312 1718 c3 -7 58 -158 123 -335 l118 -323 42 0 42 0 118 323 c65
177 120 328 123 335 3 10 -6 12 -39 10 l-43 -3 -96 -273 c-53 -150 -100 -274
-105 -275 -4 -1 -51 122 -105 273 l-97 275 -43 3 c-32 2 -41 0 -38 -10z"/>
<path d="M7570 1395 l0 -335 40 0 40 0 0 130 0 131 83 -3 82 -3 68 -127 69
-128 44 0 c24 0 44 2 44 4 0 2 -32 64 -72 137 -55 101 -69 134 -58 137 8 3 31
21 52 41 84 85 73 245 -21 308 -52 35 -95 43 -238 43 l-133 0 0 -335z m290
252 c20 -7 44 -27 58 -47 20 -29 23 -44 20 -88 -8 -93 -57 -121 -215 -122
l-73 0 0 135 0 135 88 -1 c48 0 103 -5 122 -12z"/>
</g>
</svg>
